<?xml version="1.0" encoding="UTF-8" standalone="no"?>
<svg
   xmlns:dc="http://purl.org/dc/elements/1.1/"
   xmlns:cc="http://creativecommons.org/ns#"
   xmlns:rdf="http://www.w3.org/1999/02/22-rdf-syntax-ns#"
   xmlns:svg="http://www.w3.org/2000/svg"
   xmlns="http://www.w3.org/2000/svg"
   xmlns:sodipodi="http://sodipodi.sourceforge.net/DTD/sodipodi-0.dtd"
   xmlns:inkscape="http://www.inkscape.org/namespaces/inkscape"
   version="1.2"
   width="50.829998mm"
   height="36.84mm"
   viewBox="0 0 5082.9998 3684"
   preserveAspectRatio="xMidYMid"
   xml:space="preserve"
   id="svg98"
   sodipodi:docname="sobre.svg"
   style="fill-rule:evenodd;stroke-width:28.22200012;stroke-linejoin:round"
   inkscape:version="0.92.2 (5c3e80d, 2017-08-06)"><metadata
     id="metadata102"><rdf:RDF><cc:Work
         rdf:about=""><dc:format>image/svg+xml</dc:format><dc:type
           rdf:resource="http://purl.org/dc/dcmitype/StillImage" /><dc:title></dc:title></cc:Work></rdf:RDF></metadata><sodipodi:namedview
     pagecolor="#ffffff"
     bordercolor="#666666"
     borderopacity="1"
     objecttolerance="10"
     gridtolerance="10"
     guidetolerance="10"
     inkscape:pageopacity="0"
     inkscape:pageshadow="2"
     inkscape:window-width="920"
     inkscape:window-height="539"
     id="namedview100"
     showgrid="false"
     inkscape:zoom="0.2102413"
     inkscape:cx="356.37165"
     inkscape:cy="-381.6189"
     inkscape:window-x="100"
     inkscape:window-y="557"
     inkscape:window-maximized="0"
     inkscape:current-layer="svg98"
     fit-margin-top="0"
     fit-margin-left="0"
     fit-margin-right="0"
     fit-margin-bottom="0" /><defs
     class="ClipPathGroup"
     id="defs8"><clipPath
       id="presentation_clip_path"
       clipPathUnits="userSpaceOnUse"><rect
         x="0"
         y="0"
         width="21000"
         height="29700"
         id="rect2" /></clipPath></defs><defs
     class="TextShapeIndex"
     id="defs12" /><defs
     class="EmbeddedBulletChars"
     id="defs44" /><defs
     class="TextEmbeddedBitmaps"
     id="defs46" /><g
     id="g51"
     transform="translate(-1071,-1069)"><g
       id="id2"
       class="Master_Slide"><g
         id="bg-id2"
         class="Background" /><g
         id="bo-id2"
         class="BackgroundObjects" /></g></g><g
     class="SlideGroup"
     id="g96"
     transform="translate(-1071,-1069)"><g
       id="g94"><g
         id="container-id1"><g
           id="id1"
           class="Slide"
           clip-path="url(#presentation_clip_path)"><g
             class="Page"
             id="g90"><g
               class="com.sun.star.drawing.CustomShape"
               id="g60"><g
                 id="id3"><rect
                   class="BoundingBox"
                   x="1071"
                   y="1070"
                   width="5083"
                   height="3683"
                   id="rect53"
                   style="fill:none;stroke:none" /><path
                   d="M 3612,4711 H 1112 V 1111 h 5000 v 3600 z"
                   id="path55"
                   inkscape:connector-curvature="0"
                   style="fill:#eeeeee;stroke:none" /><path
                   d="M 3612,4711 H 1112 V 1111 h 5000 v 3600 z"
                   id="path57"
                   inkscape:connector-curvature="0"
                   style="fill:none;stroke:#ff0000;stroke-width:81;stroke-linejoin:round" /></g></g><g
               class="com.sun.star.drawing.CustomShape"
               id="g69"><g
                 id="id4"><rect
                   class="BoundingBox"
                   x="1170"
                   y="1069"
                   width="4984"
                   height="2184"
                   id="rect62"
                   style="fill:none;stroke:none" /><path
                   d="M 3662,3211 1211,1110 h 4901 z m 2450,0 z M 1211,1110 Z"
                   id="path64"
                   inkscape:connector-curvature="0"
                   style="fill:#eeeeee;stroke:none" /><path
                   d="M 3662,3211 1211,1110 h 4901 z"
                   id="path66"
                   inkscape:connector-curvature="0"
                   style="fill:none;stroke:#ff0000;stroke-width:81;stroke-linejoin:round" /></g></g><g
               class="com.sun.star.drawing.CustomShape"
               id="g88"><g
                 id="id5"><rect
                   class="BoundingBox"
                   x="4111"
                   y="2910"
                   width="1804"
                   height="1704"
                   id="rect71"
                   style="fill:none;stroke:none" /><path
                   d="m 5127,3917 c -2,19 -3,37 -6,56 -5,14 -9,28 -14,43 -8,11 -15,22 -23,33 -10,10 -19,20 -30,30 -15,13 -31,27 -47,41 -15,10 -31,21 -47,32 -12,12 -24,24 -36,36 -4,17 -9,35 -14,52 2,16 3,32 5,49 4,15 7,30 11,45 5,15 10,29 14,44 5,14 9,28 13,43 5,7 9,13 13,20 5,8 9,16 15,25 3,7 7,14 11,22 1,3 3,6 5,9 8,-3 17,-7 26,-11 10,-2 21,-3 31,-6 11,-1 21,-1 32,-2 9,0 17,0 26,0 10,0 20,1 30,1 13,1 25,3 39,4 11,1 22,2 33,3 4,0 9,1 14,2 -7,-6 -13,-12 -20,-18 -4,-7 -9,-14 -15,-22 -4,-8 -8,-16 -12,-24 -4,-7 -8,-14 -11,-22 -13,-22 -26,-43 -39,-65 -6,-16 -11,-32 -16,-48 0,-12 1,-23 2,-36 5,-9 9,-18 15,-27 8,-8 16,-15 24,-24 18,-18 36,-35 55,-54 17,-17 34,-34 53,-52 13,-17 27,-35 42,-53 7,-19 15,-39 23,-59 0,-8 0,-15 0,-23 0,-9 0,-18 0,-26 0,-9 0,-18 0,-28 0,-9 0,-18 0,-28 -4,-2 -7,-4 -11,-7 -3,-2 -5,-4 -9,-6 -2,-1 -4,-3 -7,-4 0,-1 -1,-1 -2,-2 -17,3 -34,6 -51,9 -16,4 -31,8 -47,13 -13,5 -27,10 -41,15 -11,7 -23,13 -34,20 z m 361,-76 c -25,2 -50,4 -75,5 -13,1 -25,2 -39,3 -5,1 -9,1 -15,1 0,0 -1,0 -1,1 -4,0 -9,0 -14,0 -5,0 -10,0 -15,0 -6,0 -11,0 -16,0 -4,0 -8,0 -13,0 0,0 0,0 0,1 0,1 0,2 0,3 0,1 0,2 0,3 0,1 0,1 0,2 1,1 1,1 2,2 3,1 5,2 7,4 3,2 5,4 9,6 4,2 7,4 11,7 9,8 19,16 29,25 6,10 11,20 17,31 2,14 3,27 5,41 -3,19 -7,37 -11,56 -8,25 -16,50 -26,75 -5,12 -9,24 -15,36 -6,12 -13,23 -19,36 -6,11 -11,23 -17,35 -2,12 -4,24 -7,36 3,25 5,49 9,74 8,21 17,42 27,64 15,20 30,40 45,60 22,20 43,40 65,60 29,22 57,43 86,65 5,2 11,3 17,6 8,4 15,8 24,13 7,4 14,8 22,13 3,2 6,4 9,6 12,-7 24,-14 37,-22 14,-4 29,-8 44,-13 15,-2 31,-4 47,-6 15,-2 30,-4 46,-6 3,0 6,0 10,0 3,0 6,0 9,1 2,0 4,1 6,2 1,2 1,4 3,6 -20,-9 -39,-18 -58,-27 -15,-8 -29,-16 -45,-24 -12,-7 -24,-15 -37,-23 -11,-6 -22,-13 -33,-21 -21,-16 -42,-32 -64,-49 -16,-16 -32,-32 -49,-48 -10,-17 -20,-35 -30,-53 -2,-21 -4,-43 -8,-64 7,-27 14,-54 21,-81 10,-25 20,-50 31,-76 7,-20 15,-39 24,-59 5,-16 11,-31 17,-48 3,-13 6,-26 10,-39 1,-11 2,-22 4,-34 -1,-9 -2,-18 -3,-27 -3,-8 -5,-15 -8,-23 -4,-7 -8,-13 -13,-20 -6,-5 -13,-10 -19,-16 -3,0 -7,0 -11,0 -3,0 -7,0 -11,0 -3,0 -7,0 -11,0 -3,0 -6,0 -10,0 z m 346,-475 c -7,-2 -13,-5 -21,-7 -7,-2 -13,-4 -20,-6 -6,-2 -12,-3 -18,-5 -4,0 -8,0 -13,-1 -22,-6 -44,-13 -66,-19 -21,-9 -41,-19 -62,-29 -16,-14 -32,-28 -48,-43 -9,-20 -17,-41 -26,-61 0,-18 0,-37 0,-55 0,-9 0,-19 0,-28 0,-4 0,-7 0,-11 0,0 0,0 0,-1 -9,-22 -19,-44 -29,-66 -21,-14 -41,-28 -61,-42 -30,-7 -59,-13 -89,-19 -36,1 -73,2 -109,4 -25,3 -51,6 -76,10 -13,2 -25,4 -39,6 -4,0 -9,1 -14,2 -1,0 -1,0 -2,0 -18,1 -36,2 -54,3 -15,-1 -30,-2 -46,-3 -17,-4 -34,-8 -50,-12 -22,-7 -43,-14 -65,-21 -29,-11 -58,-22 -88,-33 -20,-6 -40,-12 -61,-18 -21,0 -43,1 -65,2 -20,7 -40,15 -61,22 -15,14 -29,28 -44,42 -14,22 -29,44 -45,67 -12,15 -24,30 -36,46 -13,10 -25,20 -38,31 -16,8 -31,15 -47,24 -21,7 -43,14 -65,22 -22,7 -44,14 -67,21 -12,4 -23,8 -35,12 -4,1 -8,2 -12,4 -1,0 -1,0 -2,0 -21,13 -42,25 -64,38 -13,14 -25,28 -39,43 -2,16 -5,33 -8,50 8,20 16,39 25,60 7,16 14,33 22,50 0,19 1,39 1,59 -6,19 -11,39 -18,59 -11,16 -23,33 -34,50 -11,17 -22,34 -33,51 1,16 2,32 4,49 12,13 24,27 37,42 21,10 43,20 64,30 6,0 12,0 18,1 9,1 19,2 29,3 11,1 22,2 34,3 11,0 23,1 34,2 21,1 41,3 62,4 25,5 49,10 74,15 27,9 54,19 82,29 28,15 57,31 86,47 7,7 15,13 22,20 8,7 16,14 24,21 10,9 20,18 31,27 12,12 25,24 38,36 20,9 39,17 59,25 26,2 52,4 78,6 26,-4 52,-8 79,-12 19,-9 38,-19 59,-28 4,-3 8,-6 13,-9 5,-4 11,-8 17,-11 7,-5 13,-9 20,-14 8,-4 15,-9 22,-13 12,-7 23,-14 35,-20 13,-6 27,-11 40,-16 16,-4 31,-8 47,-13 17,-2 34,-5 52,-9 0,0 0,0 0,-1 0,-1 0,-2 0,-3 0,-1 0,-2 0,-4 0,0 0,0 0,-1 4,0 8,0 12,0 5,0 11,0 16,0 5,0 10,0 15,0 5,0 9,0 14,0 25,-2 49,-4 75,-6 12,0 25,-1 38,-2 5,-1 10,-1 15,-1 1,0 1,0 2,0 3,0 6,0 11,0 3,0 7,0 11,0 3,0 7,0 11,0 3,0 7,0 10,0 3,0 6,0 9,0 1,0 3,0 6,0 1,0 3,0 5,0 3,0 6,0 9,0 23,-9 45,-18 68,-27 16,-11 32,-22 49,-33 10,-12 20,-25 31,-37 4,-12 7,-24 11,-37 3,-22 5,-45 8,-67 13,-16 25,-32 38,-48 19,-12 37,-23 55,-36 20,-9 39,-19 58,-29 16,-14 32,-29 48,-43 5,-17 10,-34 15,-51 -7,-16 -14,-33 -21,-49 -19,-13 -38,-25 -57,-38 z m -789,513 c -57,2 -114,4 -172,7 -54,-8 -109,-16 -163,-24 -50,-17 -99,-34 -148,-51 -42,-24 -83,-49 -124,-74 -30,-30 -61,-61 -92,-93 -17,-35 -33,-71 -51,-107 -2,-39 -3,-78 -6,-117 13,-36 25,-72 38,-109 26,-32 51,-64 78,-97 37,-26 74,-52 112,-80 47,-19 95,-39 142,-58 57,-11 113,-22 170,-34 57,-1 114,-2 170,-4 54,9 108,17 162,25 49,17 98,33 146,50 41,24 82,49 123,73 31,30 62,60 93,91 19,36 37,72 57,108 1,39 2,77 4,116 -13,36 -26,72 -40,109 -26,32 -52,64 -80,97 -37,26 -75,52 -113,80 -47,19 -94,39 -142,58 -54,11 -108,22 -164,34 z m -933,-968 z m 1801,1701 z"
                   id="path73"
                   inkscape:connector-curvature="0"
                   style="fill:#729fcf;stroke:none" /><path
                   d="m 5127,3917 c -2,19 -3,37 -6,56 -5,14 -9,28 -14,43 -8,11 -15,22 -23,33 -10,10 -19,20 -30,30 -15,13 -31,27 -47,41 -15,10 -31,21 -47,32 l -36,36 c -4,17 -9,35 -14,52 2,16 3,32 5,49 4,15 7,30 11,45 5,15 10,29 14,44 5,14 9,28 13,43 5,7 9,13 13,20 5,8 9,16 15,25 3,7 7,14 11,22 1,3 3,6 5,9 8,-3 17,-7 26,-11 10,-2 21,-3 31,-6 11,-1 21,-1 32,-2 h 26 c 10,0 20,1 30,1 13,1 25,3 39,4 l 33,3 c 4,0 9,1 14,2 -7,-6 -13,-12 -20,-18 -4,-7 -9,-14 -15,-22 l -12,-24 c -4,-7 -8,-14 -11,-22 -13,-22 -26,-43 -39,-65 -6,-16 -11,-32 -16,-48 0,-12 1,-23 2,-36 5,-9 9,-18 15,-27 8,-8 16,-15 24,-24 18,-18 36,-35 55,-54 17,-17 34,-34 53,-52 13,-17 27,-35 42,-53 7,-19 15,-39 23,-59 v -23 -26 -28 -28 c -4,-2 -7,-4 -11,-7 -3,-2 -5,-4 -9,-6 -2,-1 -4,-3 -7,-4 0,-1 -1,-1 -2,-2 l -51,9 c -16,4 -31,8 -47,13 -13,5 -27,10 -41,15 -11,7 -23,13 -34,20 z"
                   id="path75"
                   inkscape:connector-curvature="0"
                   style="fill:none;stroke:#3465a4" /><path
                   d="m 5488,3841 c -25,2 -50,4 -75,5 -13,1 -25,2 -39,3 -5,1 -9,1 -15,1 0,0 -1,0 -1,1 h -14 -15 -16 -13 v 1 3 3 2 l 2,2 c 3,1 5,2 7,4 3,2 5,4 9,6 4,2 7,4 11,7 9,8 19,16 29,25 6,10 11,20 17,31 2,14 3,27 5,41 -3,19 -7,37 -11,56 -8,25 -16,50 -26,75 -5,12 -9,24 -15,36 -6,12 -13,23 -19,36 -6,11 -11,23 -17,35 -2,12 -4,24 -7,36 3,25 5,49 9,74 8,21 17,42 27,64 l 45,60 c 22,20 43,40 65,60 29,22 57,43 86,65 5,2 11,3 17,6 8,4 15,8 24,13 7,4 14,8 22,13 l 9,6 c 12,-7 24,-14 37,-22 14,-4 29,-8 44,-13 15,-2 31,-4 47,-6 15,-2 30,-4 46,-6 h 10 c 3,0 6,0 9,1 2,0 4,1 6,2 1,2 1,4 3,6 -20,-9 -39,-18 -58,-27 -15,-8 -29,-16 -45,-24 -12,-7 -24,-15 -37,-23 -11,-6 -22,-13 -33,-21 -21,-16 -42,-32 -64,-49 -16,-16 -32,-32 -49,-48 -10,-17 -20,-35 -30,-53 -2,-21 -4,-43 -8,-64 l 21,-81 c 10,-25 20,-50 31,-76 7,-20 15,-39 24,-59 5,-16 11,-31 17,-48 3,-13 6,-26 10,-39 1,-11 2,-22 4,-34 l -3,-27 c -3,-8 -5,-15 -8,-23 -4,-7 -8,-13 -13,-20 -6,-5 -13,-10 -19,-16 h -11 -11 -11 z"
                   id="path77"
                   inkscape:connector-curvature="0"
                   style="fill:none;stroke:#3465a4" /><path
                   d="m 5834,3366 c -7,-2 -13,-5 -21,-7 -7,-2 -13,-4 -20,-6 -6,-2 -12,-3 -18,-5 -4,0 -8,0 -13,-1 -22,-6 -44,-13 -66,-19 -21,-9 -41,-19 -62,-29 -16,-14 -32,-28 -48,-43 -9,-20 -17,-41 -26,-61 v -55 -28 -11 -1 c -9,-22 -19,-44 -29,-66 -21,-14 -41,-28 -61,-42 -30,-7 -59,-13 -89,-19 -36,1 -73,2 -109,4 -25,3 -51,6 -76,10 -13,2 -25,4 -39,6 -4,0 -9,1 -14,2 h -2 l -54,3 c -15,-1 -30,-2 -46,-3 -17,-4 -34,-8 -50,-12 -22,-7 -43,-14 -65,-21 -29,-11 -58,-22 -88,-33 -20,-6 -40,-12 -61,-18 -21,0 -43,1 -65,2 -20,7 -40,15 -61,22 -15,14 -29,28 -44,42 -14,22 -29,44 -45,67 -12,15 -24,30 -36,46 -13,10 -25,20 -38,31 -16,8 -31,15 -47,24 -21,7 -43,14 -65,22 -22,7 -44,14 -67,21 -12,4 -23,8 -35,12 -4,1 -8,2 -12,4 h -2 c -21,13 -42,25 -64,38 -13,14 -25,28 -39,43 -2,16 -5,33 -8,50 8,20 16,39 25,60 7,16 14,33 22,50 0,19 1,39 1,59 -6,19 -11,39 -18,59 -11,16 -23,33 -34,50 l -33,51 c 1,16 2,32 4,49 12,13 24,27 37,42 21,10 43,20 64,30 6,0 12,0 18,1 9,1 19,2 29,3 11,1 22,2 34,3 11,0 23,1 34,2 21,1 41,3 62,4 25,5 49,10 74,15 27,9 54,19 82,29 28,15 57,31 86,47 7,7 15,13 22,20 l 24,21 c 10,9 20,18 31,27 12,12 25,24 38,36 20,9 39,17 59,25 l 78,6 c 26,-4 52,-8 79,-12 19,-9 38,-19 59,-28 4,-3 8,-6 13,-9 5,-4 11,-8 17,-11 7,-5 13,-9 20,-14 8,-4 15,-9 22,-13 12,-7 23,-14 35,-20 13,-6 27,-11 40,-16 16,-4 31,-8 47,-13 17,-2 34,-5 52,-9 v -1 -3 -4 -1 h 12 16 15 14 c 25,-2 49,-4 75,-6 12,0 25,-1 38,-2 5,-1 10,-1 15,-1 h 2 11 11 11 10 9 6 5 9 c 23,-9 45,-18 68,-27 16,-11 32,-22 49,-33 10,-12 20,-25 31,-37 4,-12 7,-24 11,-37 3,-22 5,-45 8,-67 13,-16 25,-32 38,-48 19,-12 37,-23 55,-36 20,-9 39,-19 58,-29 16,-14 32,-29 48,-43 l 15,-51 c -7,-16 -14,-33 -21,-49 -19,-13 -38,-25 -57,-38 z"
                   id="path79"
                   inkscape:connector-curvature="0"
                   style="fill:none;stroke:#3465a4" /><path
                   d="m 5045,3879 c -57,2 -114,4 -172,7 -54,-8 -109,-16 -163,-24 -50,-17 -99,-34 -148,-51 -42,-24 -83,-49 -124,-74 -30,-30 -61,-61 -92,-93 -17,-35 -33,-71 -51,-107 -2,-39 -3,-78 -6,-117 13,-36 25,-72 38,-109 26,-32 51,-64 78,-97 37,-26 74,-52 112,-80 47,-19 95,-39 142,-58 57,-11 113,-22 170,-34 57,-1 114,-2 170,-4 54,9 108,17 162,25 49,17 98,33 146,50 41,24 82,49 123,73 31,30 62,60 93,91 19,36 37,72 57,108 1,39 2,77 4,116 -13,36 -26,72 -40,109 -26,32 -52,64 -80,97 -37,26 -75,52 -113,80 -47,19 -94,39 -142,58 -54,11 -108,22 -164,34 z"
                   id="path81"
                   inkscape:connector-curvature="0"
                   style="fill:none;stroke:#3465a4" /><path
                   d="M 4112,2911 Z"
                   id="path83"
                   inkscape:connector-curvature="0"
                   style="fill:none;stroke:#3465a4" /><path
                   d="M 5913,4612 Z"
                   id="path85"
                   inkscape:connector-curvature="0"
                   style="fill:none;stroke:#3465a4" /></g></g></g></g></g></g></g></svg>